<?xml version="1.0" encoding="utf-8"?>
<!-- Generator: Adobe Illustrator 24.3.0, SVG Export Plug-In . SVG Version: 6.00 Build 0)  -->
<svg version="1.1" id="Layer_1" xmlns="http://www.w3.org/2000/svg" xmlns:xlink="http://www.w3.org/1999/xlink" x="0px" y="0px"
	 viewBox="0 0 644.9 212.5" style="enable-background:new 0 0 644.9 212.5;" xml:space="preserve">
<style type="text/css">
	.st0{fill:#F06637;}
	.st1{fill:#FFFFFF;}
</style>
<g id="_x23_ffffffff">
</g>
<g id="_x23_f06637ff">
	<path class="st0" d="M0,0.6c5.6-0.8,11.4-0.7,17,0c0,4.5-1.1,9.6,1.6,13.5c1.6,2.1,4.5,1.7,6.8,1.9c8.1-0.1,16.3,0.1,24.4-0.2
		c4.6-3.8,2.9-10,3.1-15.2c6.2-0.7,12.6-1,18.8,0c-0.2,28.5,0,57.1-0.1,85.6c0.2,6.4-0.6,12.8,0.2,19.2c4.6-2.8,8.7-6.5,13.2-9.6
		c18-13.6,36.1-27.2,54.2-40.7c-0.2-1.7-0.2-3.4-0.6-5.1c-5.4-16.9-17-31.8-32.6-40.4c-8-4.9-17.1-7.4-26.2-8.9
		c17.9-1.2,35.8-0.5,53.7-0.8c2.8-0.1,5.7,0.2,8.5,0.5c-0.2,17.5-0.1,35-0.1,52.6c23.2-17.8,46.9-35.1,70.1-53
		c0.3,57.7,0.1,115.4,0.2,173.1c-0.1,13,0.2,26-0.2,39c-17.8-13.6-35.9-26.9-53.8-40.5c-5.4-3.9-10.5-8.3-16.2-11.8
		c-0.1,17.3-0.2,34.7,0,52c-6.1,0.9-12.4,0.4-18.6,0.5c-16.1,0.2-32.1-0.1-48.2-0.6c14.7-0.5,28.9-6.2,40.3-15.4
		c10.8-8.4,18.4-20.3,22.9-33.1c0.6-1.9,0.7-4,0.8-6c-16.3-11.9-32.3-24.2-48.5-36.3c-6.3-4.6-12.3-9.6-18.8-13.9
		c-0.6,6.4-0.1,12.8-0.2,19.2c0,23,0,45.9,0,68.9c0,5.8,0.3,11.5-0.6,17.3c-6,0-12.1,0.2-18-0.5c-0.4-5.2,1.7-11.6-3.1-15.2
		c-9.7-0.2-19.4-0.6-29.1,0.2c-5.7,2.8-3.6,10.4-4,15.5c-5.6,0-11.2,0-16.8,0.1C0.1,141.9,0.3,71.3,0,0.6 M16.9,41.3
		c-0.2,4.9-0.8,10.2,2.2,14.4c5.3,1.4,10.8,0.8,16.2,0.9c5-0.1,10.2,0.5,15.1-0.8c0.8-1.1,1.6-2.3,2.4-3.4c0.2-4.5,0.1-8.9,0.1-13.4
		c-1.1-1.4-2.1-2.9-3.5-4c-4.7-0.7-9.4-0.2-14.1-0.3c-4.7,0.1-9.4-0.4-14.1,0.3C18.5,35.5,17,38.6,16.9,41.3 M21.6,75.4
		c-2.8,0.4-4.6,3.2-4.7,5.9c-0.2,4.9-0.7,10.1,1.8,14.5c2.2,0.5,4.4,1.2,6.7,1.1c8.1-0.1,16.2,0.1,24.3-0.2c1.1-1.4,2.2-2.8,3.3-4.2
		c-0.1-4.5,0-9-0.2-13.5c-0.8-1.1-1.6-2.2-2.4-3.3c-4.9-1.5-10.1-0.7-15.1-0.8C30.8,75.1,26.2,74.5,21.6,75.4 M18.8,116.7
		c-2.8,4.6-2,10.3-1.7,15.4c0.4,3.6,3.9,5.5,7.3,5.4c7.7,0.1,15.5,0.1,23.2,0c2.5,0,3.9-2.4,5.4-4c0-4.6,0-9.1,0.1-13.6
		c-1.1-1.4-2.2-2.7-3.2-4.1c-7.8-0.3-15.6-0.1-23.4-0.2C23.8,115.5,21.3,116,18.8,116.7 M19.2,156.8c-3.1,4.2-2.4,9.6-2.2,14.5
		c0,3.2,2.4,6.6,5.8,6.5c8.2,0.2,16.5,0.1,24.7,0c2.8,0.4,4.1-2.5,5.6-4.3c-0.1-4.5,0-9-0.1-13.4c-0.8-1.1-1.7-2.3-2.5-3.4
		c-4.9-1.3-10-0.7-15.1-0.8C30,156,24.5,155.4,19.2,156.8z"/>
	<path class="st0" d="M627.7,36c5.7,0.1,11.5-0.5,17.2,0.6c-0.1,4.8-0.2,9.7,0,14.5c-5.6,1.1-11.4,0.3-17.1,0.5
		C627.6,46.4,627.6,41.2,627.7,36z"/>
	<path class="st0" d="M306.6,138.9c2.8,0,5.6,0,8.4,0c0,2.7,0,5.3,0.1,8c-2.9,0-5.9,0-8.8,0C306.1,144.3,306.3,141.6,306.6,138.9z"
		/>
	<path class="st0" d="M322.1,139c2.9,0,5.8-0.1,8.7-0.1c0.2,14.4,0.1,28.7,0.1,43.1c-3,0-5.9,0-8.8,0
		C322.1,167.6,322,153.3,322.1,139z"/>
	<path class="st0" d="M273.1,142.1c8.6-4.5,18.7-2.8,28-3.2c0,2.6,0,5.2,0,7.8c-6.2,0.2-12.5-0.5-18.7,0.5c-2.9,0.3-4.7,2.8-6.3,4.9
		c-0.1,1.6-0.2,3.2-0.3,4.8c8.5,0,16.9,0.1,25.4,0c0,2.6,0.1,5.2,0,7.9c-8.5-0.1-16.9,0-25.4-0.1c-0.2,5.8,0.2,11.5-0.4,17.3
		c-3,0-6,0-9,0c-0.2-7.9-0.2-15.8,0-23.7C266.6,152.4,267.4,145.3,273.1,142.1z"/>
	<path class="st0" d="M306.2,150.7c3-0.1,6-0.1,9-0.1c0.1,10.5,0,20.9,0,31.4c-2.9,0-5.9,0-8.8,0
		C306.1,171.5,306.3,161.1,306.2,150.7z"/>
	<path class="st0" d="M338,150.6c12.6,0.1,25.2-0.3,37.9,0.3c2,1.2,4.4,2.1,5.7,4.1c1.7,3.2,1.5,6.8,1.5,10.3
		c-0.1,5.5,0,11.1,0,16.7c-2.8,0-5.6,0-8.4,0c-0.3-7.2,0.6-14.5-0.5-21.6c-0.9-4.2-6.3-2.2-9.4-2.8c-0.1,8.1-0.1,16.2-0.1,24.3
		c-2.9,0-5.8,0.1-8.7,0.1c0-8.1,0-16.2-0.1-24.3c-3.1,0-6.2-0.1-9.3-0.1c-0.2,8.1,0.2,16.3-0.3,24.4c-2.8,0-5.6,0-8.4,0
		C337.9,171.5,337.9,161,338,150.6z"/>
	<path class="st0" d="M397.1,150.8c7.1-0.5,14.2-0.1,21.2-0.2c0,2.1,0,4.3,0,6.4c-6.5,0-13-0.3-19.5,0.7c-0.4,1.6-1.8,4.1,0.8,4.6
		c4.8,1.2,10-0.5,14.7,1.1c8.1,2.2,7.6,15.9-0.2,18.3c-8,0.6-16.2,0.1-24.2,0.2c0-2.1,0-4.2,0-6.3c6.5-0.4,13,0.5,19.4-0.5
		c2.1-0.1,2.7-2.2,2.7-3.9c-0.5-0.4-1.4-1.1-1.9-1.5c-5.5-0.2-11.1,0.2-16.6-1.1c-0.6-0.3-1.8-0.8-2.4-1.1
		c-1.3-3.2-2.5-6.8-1.4-10.2C390.1,153.6,393.5,151,397.1,150.8z"/>
</g>
<g id="_x23_33355eff">
	<path class="st1" d="M266.2,36c15.8,0,31.6-0.1,47.3,0c6.8,0.4,14.3,0.8,19.8,5.4c7.4,6,8.7,16.9,5.7,25.5
		c-1.8,5.1-6.3,8.2-10.4,11.3c5.5,2.4,10.3,7,11.5,13.1c1.5,7.6,0.6,16.6-5.2,22.3c-5.5,5.1-13.3,6.1-20.4,6.4
		c-16.1,0-32.2,0-48.3,0C266.1,92.1,266.1,64.1,266.2,36 M284,51.1c-0.1,6.5,0,13-0.1,19.4c8.2,0,16.3-0.1,24.5,0
		c3.4,0,7.1-0.2,9.9-2.2c3.3-2.9,3.5-8.1,2.1-12c-1.5-4-6.2-5-9.9-5C301.7,51.1,292.8,51.3,284,51.1 M283.9,85.5
		c0.1,6.5,0.1,13.1,0.1,19.7c8.5,0,17,0.1,25.5,0c3.4-0.2,7.6-0.2,10-3.1c3-3.8,2.2-9.1,0.5-13.3c-2.5-1.8-5.4-3.2-8.5-3.2
		C302.2,85.3,293.1,85.6,283.9,85.5z"/>
	<path class="st1" d="M489,36c5.4,0,10.8,0,16.2,0c0.1,17.3,0,34.6,0,51.9c8.9-9.6,17.2-19.8,26.2-29.4c6.9-0.4,13.9,0,20.9-0.2
		c-9.5,10.1-19,20.2-28.7,30.2c9.5,10.5,19.1,21,28.6,31.5c-7,0-14,0.1-21,0c-1.4,0.2-2-1.2-2.8-2c-7.5-9.3-15.5-18.3-22.8-27.8
		c-0.8,9.9-0.2,19.8-0.4,29.7c-5.5,0.1-10.9,0-16.3,0C489.1,92.1,489,64.1,489,36z"/>
	<path class="st1" d="M351.2,58.3c11.4,0.1,22.9,0,34.3,0.1c6.4,0.1,13.3,1.2,18.2,5.7c4.5,4,6.3,10.2,6.4,16.1
		c0.1,13.3-0.1,26.6,0.1,39.9c-14.9,0-29.9,0-44.8,0c-5.6-0.1-11.8-1.8-15.1-6.6c-3.7-5.2-3.7-12.1-2.4-18.1c0.9-4.2,3.7-8.1,7.7-10
		c5-2.3,10.5-2.7,15.9-2.7c7.2,0,14.4,0,21.7,0c0-2.9-0.2-6.2-2.3-8.4c-3.4-2.9-8.2-2.8-12.4-3c-9.1-0.1-18.2,0-27.2,0
		C351.2,66.9,351.2,62.6,351.2,58.3 M365.1,97.8c-1.5,2.6-1.3,6.1,0.5,8.4c2,1.3,4.5,1.3,6.8,1.5c6.9,0,13.8-0.1,20.7,0
		c0-4.2,0-8.5,0-12.7c-6.9,0.1-13.9-0.1-20.8,0.1C369.8,95.2,366.7,95.5,365.1,97.8z"/>
	<path class="st1" d="M421.3,58.3c11,0.1,22.1-0.1,33.1,0.1c6.8,0.2,14.4,1.4,19.1,6.8c3.5,4.5,4.3,10.4,4.3,16
		c0,13-0.1,25.9,0,38.9c-5.5,0-10.9,0.1-16.4,0c0-5.6,0.1-11.2,0-16.9c-0.3-7.8,0.5-15.7-0.2-23.5c-0.3-2.6-0.8-5.9-3.7-6.8
		c-6.4-1.8-13.2-0.6-19.7-1c-0.1,16-0.1,32.1,0,48.1c-5.5,0-11,0.1-16.5-0.1C421.3,99.5,421.2,78.9,421.3,58.3z"/>
	<path class="st1" d="M557.3,58.3c11.4,0,22.7,0,34.1,0c6.2,0.1,12.8,1.1,17.8,5.1c5.1,3.9,7.1,10.6,7.1,16.8c0,13.3,0,26.6,0,39.8
		c-15,0-29.9,0-44.9,0c-6.1,0-12.7-2.5-15.9-8c-2.8-5.3-2.6-11.6-1.3-17.3c0.8-4,3.7-7.5,7.4-9.3c4.6-2.2,9.7-2.8,14.7-2.9
		c7.7-0.1,15.4,0,23.1-0.1c-0.1-2.8-0.1-6-2.2-8.1c-2.8-2.7-7-2.9-10.7-3.2c-9.8-0.3-19.5,0.2-29.3-0.2
		C557.4,66.8,557.4,62.6,557.3,58.3 M571.1,98c-1,2.4-1.3,5.2,0.1,7.5c1.4,1.9,4,2,6.2,2.2c7.4,0.1,14.7-0.1,22.1,0.1
		c0-4.2,0-8.5,0-12.7c-7,0.1-14.1-0.1-21.1,0.1C575.9,95.3,572.7,95.5,571.1,98z"/>
	<path class="st1" d="M627.6,58.3c5.7,0,11.4,0,17.2,0c0,20.6,0,41.2,0,61.7c-5.7,0.1-11.5,0-17.2,0
		C627.6,99.5,627.6,78.9,627.6,58.3z"/>
</g>
</svg>
